M48
; DRILL file {KiCad (5.1.5)-2} date 07/12/2019 22:19:21
; FORMAT={-:-/ absolute / metric / decimal}
; #@! TF.CreationDate,2019-12-07T22:19:21+01:00
; #@! TF.GenerationSoftware,Kicad,Pcbnew,(5.1.5)-2
; #@! TF.FileFunction,Plated,1,4,PTH
FMAT,2
METRIC
T1C0.300
T2C0.550
T3C0.850
T4C1.000
T5C1.300
%
G90
G05
T1
X3.05Y85.6
X3.05Y15.85
X3.1Y19.8
X3.3Y4.75
X3.3Y2.8
X5.05Y97.35
X5.05Y28.0
X5.7Y82.1
X6.6Y94.95
X6.8Y4.75
X7.65Y4.75
X7.8Y85.75
X7.95Y80.65
X11.2Y31.95
X11.2Y28.35
X12.205Y80.8
X12.45Y85.65
X12.45Y82.7
X12.45Y19.85
X12.95Y28.362
X13.15Y96.55
X13.45Y46.85
X13.45Y41.75
X13.5Y61.35
X13.5Y56.25
X13.5Y45.3
X13.5Y43.35
X13.55Y59.75
X13.55Y58.0
X14.018Y64.716
X14.018Y63.166
X14.018Y59.116
X14.75Y28.362
X14.9Y2.8
X14.989Y56.579
X16.4Y32.25
X16.4Y28.362
X16.45Y80.85
X17.15Y56.2
X17.2Y85.8
X17.3Y62.15
X17.3Y60.35
X17.35Y65.95
X18.05Y28.362
X18.2Y2.8
X19.0Y8.5
X19.0Y6.4
X19.25Y97.4
X20.2Y64.7
X20.2Y59.1
X20.25Y63.4
X20.25Y57.8
X20.25Y19.25
X20.65Y80.9
X21.05Y53.95
X21.45Y26.85
X21.5Y35.8
X21.6Y7.4
X22.1Y30.35
X22.2Y62.15
X22.75Y29.9
X23.45Y32.65
X23.65Y92.95
X23.65Y91.45
X23.65Y89.95
X23.65Y88.45
X23.65Y52.7
X24.1Y30.35
X24.6Y21.1
X24.75Y29.85
X24.9Y80.9
X25.05Y95.75
X25.35Y87.35
X25.35Y32.6
X25.35Y24.7
X25.65Y36.35
X26.0Y26.9
X26.15Y93.95
X26.7Y24.15
X27.2Y36.35
X27.35Y24.65
X27.95Y32.6
X28.2Y85.3
X28.75Y36.35
X29.0Y4.25
X29.1Y84.6
X29.15Y96.75
X29.2Y80.95
X29.4Y91.95
X29.5Y90.95
X29.75Y23.2
X30.076Y93.576
X30.15Y99.2
X30.15Y82.1
X30.334Y36.358
X30.334Y32.784
X30.6Y91.7
X31.1Y93.4
X31.1Y92.35
X31.15Y87.7
X31.5Y66.15
X31.5Y64.75
X31.55Y60.55
X31.55Y59.1
X31.65Y99.2
X31.8Y8.25
X31.884Y36.358
X31.95Y24.1
X32.15Y17.65
X32.2Y13.6
X32.45Y78.2
X32.65Y93.35
X32.65Y82.1
X33.15Y99.2
X33.15Y87.8
X33.65Y93.55
X33.65Y84.65
X33.9Y96.05
X34.0Y29.6
X34.0Y28.0
X34.0Y3.45
X34.15Y87.8
X34.2Y89.6
X34.25Y83.95
X34.65Y99.2
X34.9Y40.7
X35.0Y90.2
X35.15Y93.7
X35.15Y82.1
X35.25Y88.95
X35.25Y36.55
X35.3Y92.95
X35.7Y96.75
X36.15Y84.65
X36.6Y7.5
X37.45Y28.0
X37.5Y3.45
X37.5Y2.6
X38.05Y87.9
X38.7Y94.5
X39.5Y87.8
X40.75Y75.65
X40.95Y13.45
X40.95Y8.25
X41.3Y93.45
X41.3Y91.95
X41.3Y90.45
X41.3Y88.95
X42.55Y5.15
X42.65Y86.3
X42.65Y82.7
X44.2Y86.3
X44.2Y82.7
X44.75Y5.15
X45.75Y48.237
X45.762Y41.825
X45.95Y51.912
X46.0Y97.3
X46.0Y95.8
X46.0Y89.6
X46.05Y94.15
X46.05Y92.6
X46.05Y77.9
X46.55Y27.5
X46.65Y55.7
X46.9Y77.9
X47.15Y5.15
X47.95Y75.6
X48.35Y5.95
X48.75Y9.8
X49.05Y63.137
X49.25Y36.9
X50.2Y10.85
X50.55Y63.15
X50.55Y39.7
X50.95Y80.2
X51.15Y75.6
X51.35Y8.7
X51.35Y6.8
X51.65Y7.75
X51.8Y39.9
X51.85Y56.7
X53.1Y63.15
X53.1Y43.1
X54.05Y72.05
X54.1Y5.5
X54.15Y36.762
X54.15Y7.4
X54.3Y9.3
X54.35Y80.2
X54.6Y66.15
X55.6Y56.85
X55.65Y36.762
X56.3Y53.0
X56.3Y51.05
X56.3Y49.0
X56.9Y56.85
X57.151Y36.765
X57.25Y52.2
X57.25Y50.0
X57.45Y12.55
X57.45Y5.9
X58.3Y53.05
X58.3Y51.1
X58.3Y49.0
X58.55Y8.4
X59.0Y39.65
X59.4Y52.2
X59.4Y50.0
X59.6Y2.8
X59.95Y43.45
X60.3Y53.05
X60.3Y51.1
X60.3Y49.0
X60.85Y72.05
X61.1Y67.95
X61.1Y64.45
X61.2Y38.45
X62.0Y36.75
X62.2Y1.7
X62.6Y67.95
X62.6Y64.45
X62.75Y4.35
X63.0Y63.55
X63.25Y56.75
X63.7Y8.75
X63.7Y1.7
X63.9Y18.5
X64.1Y67.95
X64.1Y64.45
X64.5Y63.55
X64.5Y60.05
X64.5Y39.9
X64.55Y56.9
X65.45Y96.45
X65.5Y92.55
X65.8Y60.1
X65.8Y56.95
X65.8Y43.05
X65.8Y39.85
X67.35Y8.6
X68.25Y84.35
X68.3Y79.3
X68.35Y74.2
X68.6Y86.9
X68.6Y81.8
X68.75Y76.75
X73.7Y92.55
T4
X35.894Y67.408
X38.434Y67.408
X17.784Y42.708
X17.784Y40.168
X20.684Y73.648
X20.684Y71.108
X35.894Y71.008
X38.434Y71.008
X21.634Y42.708
X21.634Y40.168
X29.184Y73.648
X29.184Y71.108
X35.894Y60.208
X38.434Y60.208
X24.934Y73.648
X24.934Y71.108
X35.894Y56.608
X38.434Y56.608
X3.684Y73.648
X3.684Y71.108
X35.894Y53.008
X38.434Y53.008
X35.894Y49.408
X38.434Y49.408
X25.5Y42.7
X25.5Y40.16
X12.184Y73.648
X12.184Y71.108
X35.894Y45.808
X38.434Y45.808
X16.434Y73.648
X16.434Y71.108
X53.15Y20.19
X53.15Y17.65
X35.894Y63.808
X38.434Y63.808
X29.45Y42.65
X29.45Y40.11
X7.934Y73.648
X7.934Y71.108
X49.55Y20.19
X49.55Y17.65
T5
X4.584Y46.888
X4.584Y41.808
X4.584Y61.338
X4.584Y56.258
T2
G00X72.225Y11.175
M15
G01X72.875Y11.175
M16
G05
G00X72.225Y3.425
M15
G01X72.875Y3.425
M16
G05
T3
G00X68.475Y11.025
M15
G01X69.025Y11.025
M16
G05
G00X68.475Y3.575
M15
G01X69.025Y3.575
M16
G05
T0
M30
